<svg xmlns="http://www.w3.org/2000/svg" viewBox="0 0 32 32" fill="none">
  <rect width="32" height="32" rx="6" fill="#050505"/>
    <path transform="translate(3.00,19.39) scale(0.009811,-0.009811)" d="M520 130 100 272V428L520 570V450L222 359V341L520 250Z" fill="#00E676"/>
  <path transform="translate(9.08,19.39) scale(0.009811,-0.009811)" d="M303 -14Q231 -14 172.5 16.0Q114 46 80.0 103.0Q46 160 46 241V255Q46 336 80.0 393.0Q114 450 172.5 480.0Q231 510 303 510Q374 510 425.0 485.0Q476 460 507.5 416.5Q539 373 549 318L427 292Q423 322 409.0 346.0Q395 370 369.5 384.0Q344 398 306 398Q268 398 237.5 381.5Q207 365 189.5 332.5Q172 300 172 253V243Q172 196 189.5 163.5Q207 131 237.5 114.5Q268 98 306 98Q363 98 392.5 127.5Q422 157 430 205L552 176Q539 123 507.5 79.5Q476 36 425.0 11.0Q374 -14 303 -14Z" fill="#00E676"/>
  <path transform="translate(14.83,19.39) scale(0.009811,-0.009811)" d="M152 0V392H26V496H152V588Q152 639 182.5 669.5Q213 700 262 700H392V596H306Q278 596 278 566V496H408V392H278V0Z" fill="#00E676"/>
  <path transform="translate(19.11,19.39) scale(0.009811,-0.009811)" d="M-16 -200 278 700H404L110 -200Z" fill="#00E676"/>
  <path transform="translate(22.92,19.39) scale(0.009811,-0.009811)" d="M100 130V250L398 341V359L100 450V570L520 428V272Z" fill="#00E676"/>
</svg>